<svg id="Layer_1" data-name="Layer 1" xmlns="http://www.w3.org/2000/svg" viewBox="0 0 283.46 283.46"><rect x="48.85" y="45.87" width="97.09" height="17.92" rx="2.77"/><path d="M143.18,46.37a2.27,2.27,0,0,1,2.27,2.27V61a2.27,2.27,0,0,1-2.27,2.27H51.62A2.27,2.27,0,0,1,49.35,61V48.64a2.27,2.27,0,0,1,2.27-2.27h91.56m0-1H51.62a3.27,3.27,0,0,0-3.27,3.27V61a3.27,3.27,0,0,0,3.27,3.27h91.56A3.26,3.26,0,0,0,146.45,61V48.64a3.26,3.26,0,0,0-3.27-3.27Z"/><rect x="48.85" y="70.54" width="105.16" height="17.92" rx="2.77"/><path d="M151.24,71a2.26,2.26,0,0,1,2.27,2.26V85.69A2.27,2.27,0,0,1,151.24,88H51.62a2.27,2.27,0,0,1-2.27-2.27V73.3A2.27,2.27,0,0,1,51.62,71h99.62m0-1H51.62a3.27,3.27,0,0,0-3.27,3.26V85.69A3.28,3.28,0,0,0,51.62,89h99.62a3.27,3.27,0,0,0,3.27-3.27V73.3A3.26,3.26,0,0,0,151.24,70Z"/><rect x="48.85" y="195.14" width="81.69" height="17.92" rx="2.77"/><path d="M127.78,195.64a2.27,2.27,0,0,1,2.26,2.27v12.38a2.26,2.26,0,0,1-2.26,2.27H51.62a2.27,2.27,0,0,1-2.27-2.27V197.91a2.27,2.27,0,0,1,2.27-2.27h76.16m0-1H51.62a3.28,3.28,0,0,0-3.27,3.27v12.38a3.27,3.27,0,0,0,3.27,3.27h76.16a3.26,3.26,0,0,0,3.26-3.27V197.91a3.27,3.27,0,0,0-3.26-3.27Z"/><rect x="48.85" y="219.67" width="65.75" height="17.92" rx="2.77"/><path d="M111.82,220.17a2.27,2.27,0,0,1,2.27,2.27v12.39a2.27,2.27,0,0,1-2.27,2.26H51.61a2.26,2.26,0,0,1-2.26-2.26V222.44a2.27,2.27,0,0,1,2.26-2.27h60.21m0-1H51.61a3.27,3.27,0,0,0-3.26,3.27v12.39a3.26,3.26,0,0,0,3.26,3.26h60.21a3.26,3.26,0,0,0,3.27-3.26V222.44a3.27,3.27,0,0,0-3.27-3.27Z"/><rect x="48.85" y="108.5" width="185.69" height="17.92" rx="2.77"/><path d="M231.78,109a2.27,2.27,0,0,1,2.27,2.27v12.38a2.27,2.27,0,0,1-2.27,2.27H51.62a2.27,2.27,0,0,1-2.27-2.27V111.27A2.27,2.27,0,0,1,51.62,109H231.78m0-1H51.62a3.27,3.27,0,0,0-3.27,3.27v12.38a3.27,3.27,0,0,0,3.27,3.27H231.78a3.27,3.27,0,0,0,3.27-3.27V111.27a3.27,3.27,0,0,0-3.27-3.27Z"/><rect x="48.85" y="134.69" width="185.76" height="17.92" rx="2.77"/><path d="M231.85,135.19a2.27,2.27,0,0,1,2.27,2.27v12.39a2.27,2.27,0,0,1-2.27,2.26H51.62a2.27,2.27,0,0,1-2.27-2.26V137.46a2.27,2.27,0,0,1,2.27-2.27H231.85m0-1H51.62a3.28,3.28,0,0,0-3.27,3.27v12.39a3.27,3.27,0,0,0,3.27,3.26H231.85a3.26,3.26,0,0,0,3.27-3.26V137.46a3.27,3.27,0,0,0-3.27-3.27Z"/><rect x="48.85" y="170.32" width="53.61" height="17.92" rx="2.77"/><path d="M99.69,170.82a2.27,2.27,0,0,1,2.27,2.27v12.38a2.27,2.27,0,0,1-2.27,2.27H51.62a2.27,2.27,0,0,1-2.27-2.27V173.09a2.27,2.27,0,0,1,2.27-2.27H99.69m0-1H51.62a3.27,3.27,0,0,0-3.27,3.27v12.38a3.27,3.27,0,0,0,3.27,3.27H99.69a3.26,3.26,0,0,0,3.27-3.27V173.09a3.26,3.26,0,0,0-3.27-3.27Z"/></svg>