<svg id="Layer_1" data-name="Layer 1" xmlns="http://www.w3.org/2000/svg" viewBox="0 0 283.46 283.46"><rect x="48.89" y="72.16" width="75.08" height="17.91" rx="2.77"/><path d="M121.2,72.66a2.27,2.27,0,0,1,2.27,2.27V87.3a2.27,2.27,0,0,1-2.27,2.27H51.66a2.27,2.27,0,0,1-2.27-2.27V74.93a2.27,2.27,0,0,1,2.27-2.27H121.2m0-1H51.66a3.26,3.26,0,0,0-3.27,3.27V87.3a3.27,3.27,0,0,0,3.27,3.27H121.2a3.28,3.28,0,0,0,3.27-3.27V74.93a3.27,3.27,0,0,0-3.27-3.27Z"/><rect x="48.89" y="168.88" width="81.69" height="17.91" rx="2.77"/><path d="M127.81,169.38a2.27,2.27,0,0,1,2.27,2.27V184a2.27,2.27,0,0,1-2.27,2.27H51.66A2.27,2.27,0,0,1,49.39,184V171.65a2.27,2.27,0,0,1,2.27-2.27h76.15m0-1H51.66a3.26,3.26,0,0,0-3.27,3.27V184a3.26,3.26,0,0,0,3.27,3.27h76.15a3.26,3.26,0,0,0,3.27-3.27V171.65a3.26,3.26,0,0,0-3.27-3.27Z"/><rect x="48.88" y="193.4" width="65.75" height="17.91" rx="2.77"/><path d="M111.86,193.9a2.27,2.27,0,0,1,2.27,2.27v12.37a2.27,2.27,0,0,1-2.27,2.27H51.65a2.27,2.27,0,0,1-2.27-2.27V196.17a2.27,2.27,0,0,1,2.27-2.27h60.21m0-1H51.65a3.27,3.27,0,0,0-3.27,3.27v12.37a3.28,3.28,0,0,0,3.27,3.27h60.21a3.27,3.27,0,0,0,3.27-3.27V196.17a3.26,3.26,0,0,0-3.27-3.27Z"/><rect x="48.89" y="108.52" width="185.69" height="17.91" rx="2.77"/><path d="M231.81,109a2.27,2.27,0,0,1,2.27,2.27v12.37a2.27,2.27,0,0,1-2.27,2.27H51.66a2.27,2.27,0,0,1-2.27-2.27V111.29A2.27,2.27,0,0,1,51.66,109H231.81m0-1H51.66a3.26,3.26,0,0,0-3.27,3.27v12.37a3.26,3.26,0,0,0,3.27,3.27H231.81a3.26,3.26,0,0,0,3.27-3.27V111.29a3.26,3.26,0,0,0-3.27-3.27Z"/><rect x="48.89" y="134.7" width="158.54" height="17.91" rx="2.77"/><path d="M204.66,135.2a2.27,2.27,0,0,1,2.27,2.27v12.37a2.27,2.27,0,0,1-2.27,2.27h-153a2.27,2.27,0,0,1-2.27-2.27V137.47a2.27,2.27,0,0,1,2.27-2.27h153m0-1h-153a3.26,3.26,0,0,0-3.27,3.27v12.37a3.26,3.26,0,0,0,3.27,3.27h153a3.26,3.26,0,0,0,3.27-3.27V137.47a3.26,3.26,0,0,0-3.27-3.27Z"/></svg>